<svg width="24" height="24" viewBox="0 0 24 24" fill="none" xmlns="http://www.w3.org/2000/svg">
<path fill-rule="evenodd" clip-rule="evenodd" d="M24 19.9995C24 21.0603 23.5786 22.0777 22.8285 22.8278C22.0784 23.5779 21.061 23.9993 20.0002 23.9993H3.99977C2.93896 23.9993 1.92161 23.5779 1.1715 22.8278C0.421403 22.0777 0 21.0603 0 19.9995H24ZM5.12749 0H19.094H19.3049L19.5032 0.00492149L19.6909 0.0119522L19.8688 0.0210921L20.0375 0.0358566L20.1964 0.0485118L20.3461 0.0639794L20.4868 0.08015L20.621 0.0991329C20.7518 0.118819 20.872 0.141317 20.9831 0.16944L21.0928 0.195453L21.1448 0.209515L21.2468 0.238341L21.3445 0.269276L21.4387 0.30232L21.5294 0.336771L21.5737 0.35505L21.6609 0.392313L21.7467 0.431685L21.831 0.472463L21.914 0.51535L21.9562 0.537146C22.5664 0.861197 23.0716 1.35267 23.4122 1.95383L23.4825 2.08812L23.5247 2.17108L23.5662 2.25545L23.6049 2.34122L23.6421 2.4284C23.6485 2.44317 23.6548 2.45793 23.6604 2.4727L23.6949 2.56339L23.7279 2.6576L23.7588 2.75533L23.7877 2.85728C23.7926 2.87415 23.7968 2.89173 23.8017 2.9093L23.8277 3.01898C23.8531 3.13007 23.8756 3.25029 23.8981 3.38106L23.917 3.51535L23.9339 3.65596C23.9339 3.68057 23.9388 3.70518 23.9416 3.72979L23.955 3.88376L23.967 4.04687C23.967 4.07499 23.9705 4.10312 23.9726 4.13194L23.981 4.30982L23.988 4.49754L23.993 4.69581L23.9965 4.90673V5.12819V18.4992H0V5.0157V4.79986L0.00421842 4.59597L0.00984298 4.40262L0.020389 4.21842C0.020389 4.18889 0.020389 4.15936 0.0253105 4.13054L0.0358566 3.96532L0.0485118 3.80642C0.0534333 3.7551 0.0583548 3.70518 0.0639794 3.65596L0.08015 3.51535L0.0991329 3.38106C0.118819 3.25029 0.141317 3.13007 0.16944 3.01898L0.195453 2.9093C0.200375 2.89173 0.204593 2.87415 0.209515 2.85728L0.238341 2.75533L0.269276 2.6576L0.30232 2.56339L0.336771 2.4727L0.351535 2.4284L0.388798 2.34122L0.42817 2.25545L0.468948 2.17108L0.511835 2.08812L0.53363 2.04593C0.857876 1.43337 1.35069 0.926406 1.95383 0.584954L2.08812 0.514647L2.17108 0.47176L2.25545 0.430982L2.34122 0.39161L2.4284 0.351535L2.4727 0.333255L2.56339 0.298805L2.6576 0.26576L2.75533 0.234825L2.85728 0.206L2.91001 0.191938L3.01898 0.165925C3.13077 0.140614 3.25029 0.118116 3.38106 0.0956175L3.51535 0.08015L3.65596 0.0639794L3.73049 0.0562456L3.88517 0.0421842L4.04828 0.030232L4.13335 0.0253105L4.31052 0.0161706L4.49965 0.00913991L4.69651 0.00421842H4.90743H5.1289L5.12749 0ZM5.80595 6.0464L4.35903 6.58144C4.02859 6.70377 3.92243 6.92876 4.06445 7.26271C5.44317 10.5025 8.04453 12.2264 12.0091 12.2264C15.9738 12.2264 18.5611 10.5074 19.9419 7.27678C20.0902 6.92946 19.9419 6.68831 19.6529 6.58144L18.2095 6.0464C17.9283 5.94235 17.7026 6.03726 17.5444 6.35646L17.5233 6.40145C16.539 8.60628 14.8615 9.65807 12.007 9.65807C9.18702 9.65807 7.51723 8.63159 6.5266 6.48231L6.48371 6.38669C6.35083 6.0921 6.16592 5.91071 5.80595 6.0464V6.0464Z" fill="white"/>
</svg>
