<svg width="24" height="24" viewBox="0 0 24 24" fill="none" xmlns="http://www.w3.org/2000/svg">
<path d="M10.5 4.5V0H13.5V4.5H10.5Z" fill="#F7F0EA"/>
<path d="M13.5 19.5V24H10.5V19.5H13.5Z" fill="#F7F0EA"/>
<path d="M16.5 12C16.5 14.4853 14.4853 16.5 12 16.5C9.51472 16.5 7.5 14.4853 7.5 12C7.5 9.51472 9.51472 7.5 12 7.5C14.4853 7.5 16.5 9.51472 16.5 12Z" fill="#F7F0EA"/>
<path d="M0 13.5H4.5V10.5H0V13.5Z" fill="#F7F0EA"/>
<path d="M24 10.5H19.5V13.5H24V10.5Z" fill="#F7F0EA"/>
<path d="M5.63604 7.75736L2.45406 4.57538L4.57538 2.45406L7.75736 5.63604L5.63604 7.75736Z" fill="#F7F0EA"/>
<path d="M18.364 16.2426L21.5459 19.4246L19.4246 21.5459L16.2426 18.364L18.364 16.2426Z" fill="#F7F0EA"/>
<path d="M4.57538 21.5459L7.75736 18.364L5.63604 16.2426L2.45406 19.4246L4.57538 21.5459Z" fill="#F7F0EA"/>
<path d="M19.4246 2.45406L16.2426 5.63604L18.364 7.75736L21.5459 4.57538L19.4246 2.45406Z" fill="#F7F0EA"/>
</svg>
