{
    "asset" : {
        "generator" : "Khronos glTF Blender I/O v1.8.6",
        "version" : "2.0"
    },
    "scene" : 0,
    "scenes" : [
        {
            "name" : "Scene",
            "nodes" : [
                0
            ]
        }
    ],
    "nodes" : [
        {
            "mesh" : 0,
            "name" : "XMLID_140_",
            "rotation" : [
                -0.7071068286895752,
                0,
                0,
                0.7071068286895752
            ],
            "scale" : [
                62.509891510009766,
                62.509891510009766,
                62.509891510009766
            ],
            "translation" : [
                -2.3707258701324463,
                4.91392707824707,
                0.008450031280517578
            ]
        }
    ],
    "materials" : [
        {
            "doubleSided" : true,
            "name" : "OCG",
            "pbrMetallicRoughness" : {
                "baseColorFactor" : [
                    0,
                    0.24228115379810333,
                    1,
                    1
                ],
                "metallicFactor" : 0,
                "roughnessFactor" : 0.5
            }
        }
    ],
    "meshes" : [
        {
            "name" : "XMLID_140_",
            "primitives" : [
                {
                    "attributes" : {
                        "POSITION" : 0,
                        "NORMAL" : 1,
                        "TEXCOORD_0" : 2
                    },
                    "indices" : 3,
                    "material" : 0
                }
            ]
        }
    ],
    "accessors" : [
        {
            "bufferView" : 0,
            "componentType" : 5126,
            "count" : 915,
            "max" : [
                0.08202109485864639,
                0.0059999991208314896,
                0
            ],
            "min" : [
                0,
                -0.0059999991208314896,
                -0.07809856534004211
            ],
            "type" : "VEC3"
        },
        {
            "bufferView" : 1,
            "componentType" : 5126,
            "count" : 915,
            "type" : "VEC3"
        },
        {
            "bufferView" : 2,
            "componentType" : 5126,
            "count" : 915,
            "type" : "VEC2"
        },
        {
            "bufferView" : 3,
            "componentType" : 5123,
            "count" : 2280,
            "type" : "SCALAR"
        }
    ],
    "bufferViews" : [
        {
            "buffer" : 0,
            "byteLength" : 10980,
            "byteOffset" : 0
        },
        {
            "buffer" : 0,
            "byteLength" : 10980,
            "byteOffset" : 10980
        },
        {
            "buffer" : 0,
            "byteLength" : 7320,
            "byteOffset" : 21960
        },
        {
            "buffer" : 0,
            "byteLength" : 4560,
            "byteOffset" : 29280
        }
    ],
    "buffers" : [
        {
            "byteLength" : 33840,
            "uri" : "data:application/octet-stream;base64,"
        }
    ]
}
