{
    "asset" : {
        "generator" : "Khronos glTF Blender I/O v1.8.19",
        "version" : "2.0"
    },
    "scene" : 0,
    "scenes" : [
        {
            "name" : "Scene",
            "nodes" : [
                0,
                1
            ]
        }
    ],
    "nodes" : [
        {
            "mesh" : 0,
            "name" : "Orange",
            "rotation" : [
                0.7071068286895752,
                0,
                0,
                0.7071068286895752
            ],
            "scale" : [
                31.233964920043945,
                31.233964920043945,
                31.233964920043945
            ],
            "translation" : [
                -0.26494669914245605,
                0.9254752993583679,
                -0.08434218168258667
            ]
        },
        {
            "mesh" : 1,
            "name" : "Blue.001",
            "rotation" : [
                0.7071068286895752,
                0,
                0,
                0.7071068286895752
            ],
            "scale" : [
                31.233964920043945,
                31.233964920043945,
                31.233964920043945
            ],
            "translation" : [
                0.29177331924438477,
                -0.9277499318122864,
                -0.18229836225509644
            ]
        }
    ],
    "materials" : [
        {
            "doubleSided" : true,
            "name" : "PlusRed",
            "pbrMetallicRoughness" : {
                "baseColorFactor" : [
                    0.6104960441589355,
                    0.09305886179208755,
                    0.08650048077106476,
                    1
                ],
                "metallicFactor" : 0,
                "roughnessFactor" : 0.5
            }
        },
        {
            "doubleSided" : true,
            "name" : "Material.013",
            "pbrMetallicRoughness" : {
                "baseColorFactor" : [
                    0.04463367536664009,
                    0.17323295772075653,
                    0.6514057517051697,
                    1
                ],
                "metallicFactor" : 0,
                "roughnessFactor" : 0.5
            }
        }
    ],
    "meshes" : [
        {
            "name" : "Orange",
            "primitives" : [
                {
                    "attributes" : {
                        "POSITION" : 0,
                        "NORMAL" : 1,
                        "TEXCOORD_0" : 2
                    },
                    "indices" : 3,
                    "material" : 0
                }
            ]
        },
        {
            "name" : "Blue.001",
            "primitives" : [
                {
                    "attributes" : {
                        "POSITION" : 4,
                        "NORMAL" : 5,
                        "TEXCOORD_0" : 6
                    },
                    "indices" : 7,
                    "material" : 1
                }
            ]
        }
    ],
    "accessors" : [
        {
            "bufferView" : 0,
            "componentType" : 5126,
            "count" : 2932,
            "max" : [
                0.021982980892062187,
                0.007800000254064798,
                0.04267370328307152
            ],
            "min" : [
                -0.04093552753329277,
                -0.007800000254064798,
                -0.01995713636279106
            ],
            "type" : "VEC3"
        },
        {
            "bufferView" : 1,
            "componentType" : 5126,
            "count" : 2932,
            "type" : "VEC3"
        },
        {
            "bufferView" : 2,
            "componentType" : 5126,
            "count" : 2932,
            "type" : "VEC2"
        },
        {
            "bufferView" : 3,
            "componentType" : 5123,
            "count" : 13308,
            "type" : "SCALAR"
        },
        {
            "bufferView" : 4,
            "componentType" : 5126,
            "count" : 3084,
            "max" : [
                0.040943216532468796,
                0.006799999624490738,
                0.01995770074427128
            ],
            "min" : [
                -0.021983759477734566,
                -0.006799999624490738,
                -0.04267313703894615
            ],
            "type" : "VEC3"
        },
        {
            "bufferView" : 5,
            "componentType" : 5126,
            "count" : 3084,
            "type" : "VEC3"
        },
        {
            "bufferView" : 6,
            "componentType" : 5126,
            "count" : 3084,
            "type" : "VEC2"
        },
        {
            "bufferView" : 7,
            "componentType" : 5123,
            "count" : 13308,
            "type" : "SCALAR"
        }
    ],
    "bufferViews" : [
        {
            "buffer" : 0,
            "byteLength" : 35184,
            "byteOffset" : 0
        },
        {
            "buffer" : 0,
            "byteLength" : 35184,
            "byteOffset" : 35184
        },
        {
            "buffer" : 0,
            "byteLength" : 23456,
            "byteOffset" : 70368
        },
        {
            "buffer" : 0,
            "byteLength" : 26616,
            "byteOffset" : 93824
        },
        {
            "buffer" : 0,
            "byteLength" : 37008,
            "byteOffset" : 120440
        },
        {
            "buffer" : 0,
            "byteLength" : 37008,
            "byteOffset" : 157448
        },
        {
            "buffer" : 0,
            "byteLength" : 24672,
            "byteOffset" : 194456
        },
        {
            "buffer" : 0,
            "byteLength" : 26616,
            "byteOffset" : 219128
        }
    ],
    "buffers" : [
        {
            "byteLength" : 245744,
            "uri" : "data:application/octet-stream;base64,"
        }
    ]
}
