{
    "asset" : {
        "generator" : "Khronos glTF Blender I/O v1.8.6",
        "version" : "2.0"
    },
    "scene" : 0,
    "scenes" : [
        {
            "name" : "Scene",
            "nodes" : [
                0,
                1,
                2
            ]
        }
    ],
    "nodes" : [
        {
            "mesh" : 0,
            "name" : "Base",
            "rotation" : [
                0.7071068286895752,
                0,
                0,
                0.7071068286895752
            ],
            "scale" : [
                19.421279907226562,
                19.421279907226562,
                19.421279907226562
            ],
            "translation" : [
                0.028669357299804688,
                0.1853846311569214,
                -0.0689547061920166
            ]
        },
        {
            "mesh" : 1,
            "name" : "Curve",
            "rotation" : [
                0.7071068286895752,
                0,
                0,
                0.7071068286895752
            ],
            "scale" : [
                19.421279907226562,
                19.421279907226562,
                19.421279907226562
            ],
            "translation" : [
                0.02903890609741211,
                2.122858762741089,
                -0.06895458698272705
            ]
        },
        {
            "mesh" : 2,
            "name" : "Curve.001",
            "rotation" : [
                0.7071068286895752,
                0,
                0,
                0.7071068286895752
            ],
            "scale" : [
                19.421279907226562,
                19.421279907226562,
                19.421279907226562
            ],
            "translation" : [
                0.029541730880737305,
                1.8557236194610596,
                0.004595756530761719
            ]
        }
    ],
    "materials" : [
        {
            "doubleSided" : true,
            "name" : "bottom",
            "pbrMetallicRoughness" : {
                "baseColorFactor" : [
                    0.29613810777664185,
                    0.6375973224639893,
                    0.913098931312561,
                    1
                ],
                "metallicFactor" : 0,
                "roughnessFactor" : 0.4000000059604645
            }
        },
        {
            "doubleSided" : true,
            "name" : "blue",
            "pbrMetallicRoughness" : {
                "baseColorFactor" : [
                    0.08650046586990356,
                    0.23455063998699188,
                    0.7529424428939819,
                    1
                ],
                "metallicFactor" : 0,
                "roughnessFactor" : 0.5
            }
        },
        {
            "doubleSided" : true,
            "name" : "white",
            "pbrMetallicRoughness" : {
                "baseColorFactor" : [
                    0.800000011920929,
                    0.800000011920929,
                    0.800000011920929,
                    1
                ],
                "metallicFactor" : 0,
                "roughnessFactor" : 0.4000000059604645
            }
        }
    ],
    "meshes" : [
        {
            "name" : "Base",
            "primitives" : [
                {
                    "attributes" : {
                        "POSITION" : 0,
                        "NORMAL" : 1,
                        "TEXCOORD_0" : 2
                    },
                    "indices" : 3,
                    "material" : 0
                }
            ]
        },
        {
            "name" : "Curve",
            "primitives" : [
                {
                    "attributes" : {
                        "POSITION" : 4,
                        "NORMAL" : 5,
                        "TEXCOORD_0" : 6
                    },
                    "indices" : 7,
                    "material" : 1
                }
            ]
        },
        {
            "name" : "Curve.001",
            "primitives" : [
                {
                    "attributes" : {
                        "POSITION" : 8,
                        "NORMAL" : 9,
                        "TEXCOORD_0" : 10
                    },
                    "indices" : 11,
                    "material" : 2
                }
            ]
        }
    ],
    "accessors" : [
        {
            "bufferView" : 0,
            "componentType" : 5126,
            "count" : 352,
            "max" : [
                0.07055497169494629,
                0.006000000052154064,
                0.009440839290618896
            ],
            "min" : [
                -0.07055901736021042,
                -0.006000000052154064,
                -0.014072254300117493
            ],
            "type" : "VEC3"
        },
        {
            "bufferView" : 1,
            "componentType" : 5126,
            "count" : 352,
            "type" : "VEC3"
        },
        {
            "bufferView" : 2,
            "componentType" : 5126,
            "count" : 352,
            "type" : "VEC2"
        },
        {
            "bufferView" : 3,
            "componentType" : 5123,
            "count" : 720,
            "type" : "SCALAR"
        },
        {
            "bufferView" : 4,
            "componentType" : 5126,
            "count" : 690,
            "max" : [
                0.07058674842119217,
                0.006000000052154064,
                0.08568811416625977
            ],
            "min" : [
                -0.07057805359363556,
                -0.006000000052154064,
                -0.031882982701063156
            ],
            "type" : "VEC3"
        },
        {
            "bufferView" : 5,
            "componentType" : 5126,
            "count" : 690,
            "type" : "VEC3"
        },
        {
            "bufferView" : 6,
            "componentType" : 5126,
            "count" : 690,
            "type" : "VEC2"
        },
        {
            "bufferView" : 7,
            "componentType" : 5123,
            "count" : 1164,
            "type" : "SCALAR"
        },
        {
            "bufferView" : 8,
            "componentType" : 5126,
            "count" : 760,
            "max" : [
                0.046988438814878464,
                0.006000000052154064,
                0.02621924877166748
            ],
            "min" : [
                -0.04704228788614273,
                -0.006000000052154064,
                -0.010369165800511837
            ],
            "type" : "VEC3"
        },
        {
            "bufferView" : 9,
            "componentType" : 5126,
            "count" : 760,
            "type" : "VEC3"
        },
        {
            "bufferView" : 10,
            "componentType" : 5126,
            "count" : 760,
            "type" : "VEC2"
        },
        {
            "bufferView" : 11,
            "componentType" : 5123,
            "count" : 1296,
            "type" : "SCALAR"
        }
    ],
    "bufferViews" : [
        {
            "buffer" : 0,
            "byteLength" : 4224,
            "byteOffset" : 0
        },
        {
            "buffer" : 0,
            "byteLength" : 4224,
            "byteOffset" : 4224
        },
        {
            "buffer" : 0,
            "byteLength" : 2816,
            "byteOffset" : 8448
        },
        {
            "buffer" : 0,
            "byteLength" : 1440,
            "byteOffset" : 11264
        },
        {
            "buffer" : 0,
            "byteLength" : 8280,
            "byteOffset" : 12704
        },
        {
            "buffer" : 0,
            "byteLength" : 8280,
            "byteOffset" : 20984
        },
        {
            "buffer" : 0,
            "byteLength" : 5520,
            "byteOffset" : 29264
        },
        {
            "buffer" : 0,
            "byteLength" : 2328,
            "byteOffset" : 34784
        },
        {
            "buffer" : 0,
            "byteLength" : 9120,
            "byteOffset" : 37112
        },
        {
            "buffer" : 0,
            "byteLength" : 9120,
            "byteOffset" : 46232
        },
        {
            "buffer" : 0,
            "byteLength" : 6080,
            "byteOffset" : 55352
        },
        {
            "buffer" : 0,
            "byteLength" : 2592,
            "byteOffset" : 61432
        }
    ],
    "buffers" : [
        {
            "byteLength" : 64024,
            "uri" : "data:application/octet-stream;base64,"
        }
    ]
}
